<svg width="23" height="23" viewBox="0 0 23 23" fill="none" xmlns="http://www.w3.org/2000/svg">
<path d="M19.96 6.28003C19.96 6.47337 19.96 6.76337 19.96 6.9567C19.96 14.2067 15.4 22.52 7.08 22.52C4.52 22.52 2.12 21.65 0.119995 20.1034C0.439995 20.1034 0.839995 20.2 1.24 20.2C3.4 20.2 5.32 19.33 6.84 17.88C4.84 17.88 3.16 16.2367 2.6 14.11C2.84 14.2067 3.16 14.2067 3.48 14.2067C3.88 14.2067 4.28 14.11 4.68 14.0134C2.6 13.4334 0.999995 11.21 0.999995 8.60003C0.999995 8.60003 0.999995 8.60003 0.999995 8.50336C1.64 8.89003 2.28 9.18003 3.08 9.18003C1.88 8.21337 1.08 6.57003 1.08 4.6367C1.08 3.67003 1.32 2.70337 1.72 1.93003C3.96 5.2167 7.32 7.44003 11.08 7.63336C11 7.2467 11 6.86003 11 6.3767C11 3.38003 13 0.866699 15.56 0.866699C16.84 0.866699 18.04 1.54337 18.84 2.6067C19.88 2.3167 20.84 1.93003 21.72 1.25337C21.4 2.51003 20.68 3.57337 19.72 4.25003C20.52 4.15337 21.4 3.86337 22.2 3.4767C21.56 4.54003 20.84 5.5067 19.96 6.28003Z" fill="black"/>
</svg>
